<svg xmlns="http://www.w3.org/2000/svg" data-name="Layer 1" viewBox="0 0 110 137.5" x="0px" y="0px"><path d="M38.033,33.655v5.261c.358.117.713.23,1.065.333.225.065.454.14.675.2.691.184,1.37.343,2.026.463,6.79,1.268,12.505-.382,17.389-5.042.026-.025.054-.047.08-.073a27.887,27.887,0,0,0,2.05-2.208,1,1,0,0,1,.753-.359h.015a1,1,0,0,1,.748.336c.006.007.144.16.4.412l.021.021.157.154.071.069c.053.051.114.107.173.163l.1.093c.057.053.122.111.185.167.045.041.087.08.135.122s.129.113.195.17.108.095.166.144l.208.174c.065.054.128.107.2.163s.148.118.223.178.144.115.22.174.159.121.239.181.161.122.246.184.166.12.25.18.179.129.273.194.175.118.263.178l.295.2.276.175c.106.066.211.133.319.2s.192.114.289.171c.112.066.225.132.34.2.1.055.2.11.3.164.085.046.17.092.257.137H68.9c.213,0,.437.011.65.031a4.5,4.5,0,0,1,.717.115c.053.007.124.021.2.04V33.655a16.111,16.111,0,0,0-9.141-14.594h-.005a15.8,15.8,0,0,0-4.391-1.377,15.807,15.807,0,0,0-6,.095c-.059.012-.115.033-.174.045a15.618,15.618,0,0,0-2.962.96A16.2,16.2,0,0,0,38.033,33.655Z"/><path d="M54.641,8A6.856,6.856,0,0,0,48,16.54c.147-.054.3-.092.447-.142q.3-.1.6-.19c.355-.106.713-.2,1.074-.283.211-.049.421-.1.634-.141.4-.078.8-.136,1.21-.187.17-.021.337-.05.507-.066.587-.057,1.179-.092,1.777-.092.031,0,.062.005.094.005.511,0,1.015.03,1.515.072.1.009.2.015.3.026.514.052,1.022.128,1.524.223l.268.053c.521.107,1.036.233,1.543.385l.122.04c.538.165,1.068.353,1.589.569A6.85,6.85,0,0,0,54.641,8Z"/><path d="M69.875,39.031a3.807,3.807,0,0,0-.45-.081l-.045,0v9.236c.132-.013.259-.042.387-.067s.247-.036.366-.069a4.344,4.344,0,0,0,.409-.148c.112-.042.229-.075.338-.126a4.639,4.639,0,0,0,.415-.239c.091-.055.187-.1.274-.16a4.646,4.646,0,0,0-.556-7.943c-.109-.058-.208-.1-.306-.142a3.625,3.625,0,0,0-.416-.153A3.173,3.173,0,0,0,69.875,39.031Z"/><path d="M45.249,66.044c.045-.014.093-.022.138-.038a3.8,3.8,0,0,0,2-1.629l.016-.023a3.808,3.808,0,0,0,.238-.5c.014-.035.034-.066.047-.1a3.613,3.613,0,0,0,.137-.5c.011-.05.031-.1.04-.147a3.847,3.847,0,0,0,.061-.683V61.1c-.057-.033-.107-.074-.164-.107a14.479,14.479,0,0,1-1.37-.9c-.04-.029-.075-.062-.114-.091a14.046,14.046,0,0,1-1.154-.992c-.05-.047-.109-.087-.158-.135h-9.1V63.5c.1-.055.2-.1.309-.148.029-.013.056-.028.086-.041a3.867,3.867,0,0,1,.635-.2c.05-.011.1-.02.152-.03a3.9,3.9,0,0,1,.7-.07,3.853,3.853,0,0,1,2.742,1.137,3.79,3.79,0,0,1,.436.527c.039.056.072.114.108.172a3.771,3.771,0,0,1,.235.439c.03.065.059.128.085.2a3.814,3.814,0,0,1,.173.566c.007.032.019.062.026.095l.005.02h3.226A3.836,3.836,0,0,0,45.249,66.044Z"/><rect x="41.621" y="85.809" width="26.759" height="3.45"/><path d="M43.248,56.881c-.041-.058-.071-.122-.111-.18q-.4-.573-.731-1.18c-.041-.074-.088-.144-.128-.218a14.114,14.114,0,0,1-.674-1.482c-.051-.131-.092-.265-.139-.4-.137-.385-.259-.775-.363-1.173-.044-.167-.085-.333-.123-.5-.092-.414-.164-.832-.22-1.255-.012-.1-.04-.192-.051-.29-.025,0-.048-.009-.073-.011a6.6,6.6,0,0,1-1.046-.156c-.055-.012-.108-.026-.162-.04a6.573,6.573,0,0,1-1-.341c-.044-.019-.086-.041-.13-.061a6.57,6.57,0,0,1-.942-.531c-.026-.018-.051-.039-.077-.057a6.766,6.766,0,0,1-.884-.736,7.072,7.072,0,0,1-.618-.729c-.039-.053-.079-.1-.117-.159a6.677,6.677,0,0,1-.474-.778c-.025-.049-.046-.1-.069-.148a6.451,6.451,0,0,1-.32-.78c-.013-.04-.03-.079-.043-.12a6.66,6.66,0,0,1-.208-.888c-.005-.032-.017-.062-.022-.094H29.9V56.881H43.248Z"/><path d="M76.138,93.763c0,.01,0,.019,0,.029V102h8.976V89.712H76.138Z"/><path d="M85.111,81.7a13.52,13.52,0,0,0-8.973-12.75V87.712h8.973Z"/><path d="M80.1,44.574H75.473c0,.032-.017.062-.022.094a6.557,6.557,0,0,1-.208.889c-.013.04-.029.078-.043.119a6.512,6.512,0,0,1-.319.78c-.024.049-.045.1-.07.147a6.648,6.648,0,0,1-.472.777c-.038.054-.078.107-.118.16a7.031,7.031,0,0,1-.616.727,6.688,6.688,0,0,1-.884.736c-.027.019-.052.041-.079.059a6.459,6.459,0,0,1-.941.53c-.045.021-.088.043-.133.063a6.549,6.549,0,0,1-.994.341c-.055.014-.108.028-.163.04a6.631,6.631,0,0,1-1.046.156c-.025,0-.048.01-.073.011-.011.1-.039.193-.052.291-.055.422-.127.84-.219,1.252-.038.171-.08.339-.124.507-.1.393-.223.779-.359,1.161-.049.137-.091.276-.144.412a14.006,14.006,0,0,1-.67,1.471c-.045.085-.1.166-.147.25q-.326.588-.708,1.144c-.042.062-.074.129-.117.19H80.1Z"/><path d="M24.889,102h8.976V93.792c0-.01,0-.019,0-.029V89.712H24.889Z"/><path d="M21.183,54.248a2.636,2.636,0,0,0,2.633,2.633H27.9V44.574H23.816a2.637,2.637,0,0,0-2.633,2.634Z"/><path d="M68.379,68.164H66.855c0,.051-.014.1-.018.15-.016.176-.043.347-.066.52-.029.214-.057.427-.1.637-.033.172-.075.34-.115.51-.049.205-.1.408-.157.609-.049.167-.105.33-.162.494-.067.2-.136.39-.213.581-.064.16-.134.317-.206.474-.085.187-.172.371-.266.553-.079.152-.162.3-.248.45q-.151.264-.317.521-.138.215-.285.422-.177.251-.367.49c-.1.133-.21.263-.32.391-.133.156-.271.305-.412.454-.116.122-.232.242-.353.359-.147.143-.3.279-.455.414-.126.109-.251.219-.382.324-.161.129-.328.25-.495.371-.136.1-.27.2-.409.288-.174.114-.354.219-.535.324-.143.084-.284.17-.43.248-.188.1-.382.188-.575.277-.149.069-.3.141-.446.2-.2.084-.411.154-.619.227-.151.052-.3.111-.452.157-.221.067-.447.119-.673.174-.148.035-.292.078-.442.108-.253.051-.511.084-.77.118-.128.017-.254.043-.384.056-.39.039-.785.06-1.186.06a11.812,11.812,0,0,1-8.41-3.482c-.268-.268-.52-.548-.759-.836-.076-.092-.143-.19-.217-.284-.156-.2-.311-.4-.453-.61-.08-.117-.151-.239-.226-.358-.123-.194-.243-.389-.354-.59-.072-.13-.138-.264-.205-.4-.1-.2-.194-.395-.282-.6-.061-.14-.117-.281-.173-.423-.078-.2-.152-.407-.219-.614-.048-.147-.093-.293-.135-.441-.06-.211-.112-.424-.16-.638-.033-.149-.067-.3-.094-.446-.041-.223-.071-.448-.1-.674-.018-.146-.039-.29-.052-.436,0-.047-.013-.092-.017-.138H41.621V83.809H68.379Z"/><path d="M33.862,68.948A13.52,13.52,0,0,0,24.889,81.7v6.014h8.973Z"/><path d="M74.135,88.712V79.231l0-.014V66.892a1.88,1.88,0,0,0-3.759,0V93.763a1.885,1.885,0,0,0,1.88,1.879,1.88,1.88,0,0,0,1.876-1.85Z"/><path d="M74.138,58.881h-9.1c-.05.049-.109.089-.159.137a14.075,14.075,0,0,1-1.156.992c-.038.029-.072.061-.11.089a14.422,14.422,0,0,1-1.374.9c-.056.033-.1.074-.161.106v1.32a3.791,3.791,0,0,0,1.115,2.7,3.887,3.887,0,0,0,.449.385c.04.029.084.05.125.078a3.653,3.653,0,0,0,.367.226c.059.031.123.052.184.079a3.536,3.536,0,0,0,.343.142c.078.026.16.041.241.061.1.026.2.054.3.071h3.247c0-.01.006-.019.008-.029.013-.063.037-.122.052-.185a3.91,3.91,0,0,1,.158-.506c.033-.081.075-.157.114-.236a4.176,4.176,0,0,1,.214-.395c.051-.079.108-.153.164-.228a4.044,4.044,0,0,1,.271-.329c.066-.07.134-.137.2-.2a3.834,3.834,0,0,1,.325-.269c.077-.057.154-.113.235-.165a3.906,3.906,0,0,1,.382-.207c.084-.041.164-.084.251-.119a3.75,3.75,0,0,1,.462-.143c.077-.021.151-.048.23-.063a3.837,3.837,0,0,1,.74-.075,3.937,3.937,0,0,1,.68.066c.05.009.1.018.151.029a3.8,3.8,0,0,1,.636.194c.022.009.043.021.065.031a3.44,3.44,0,0,1,.347.165Z"/><path d="M88.817,54.248v-7.04a2.637,2.637,0,0,0-2.633-2.634H82.1V56.881h4.087A2.636,2.636,0,0,0,88.817,54.248Z"/><path d="M37.354,40.816a4.653,4.653,0,0,0,1.08,6.561c.072.05.151.085.224.131a4.3,4.3,0,0,0,.465.267c.1.048.21.078.315.118.143.055.282.115.43.156.118.032.241.045.361.068s.258.054.391.067V41.715c-.046-.01-.093-.024-.139-.034-.469-.1-.943-.219-1.425-.35-.076-.021-.153-.046-.228-.067-.425-.119-.854-.25-1.286-.39C37.479,40.853,37.417,40.837,37.354,40.816Z"/><path d="M63.9,57.189a12.225,12.225,0,0,0,3.426-7.4q.057-.6.057-1.2V38.529c-.084-.045-.162-.093-.244-.14-.142-.079-.28-.158-.417-.238-.166-.1-.327-.194-.486-.292q-.2-.124-.4-.249c-.151-.1-.3-.194-.442-.292q-.187-.126-.368-.252c-.139-.1-.271-.192-.4-.289-.113-.082-.226-.164-.334-.245-.127-.1-.246-.189-.366-.283-.1-.078-.2-.155-.292-.231-.12-.1-.229-.188-.34-.282-.081-.067-.165-.136-.241-.2-.12-.1-.226-.2-.334-.293-.054-.049-.114-.1-.166-.147-.153-.14-.294-.271-.419-.391-.312.347-.628.68-.948,1-.106.107-.214.208-.32.313-.216.211-.433.42-.653.621-.129.118-.259.232-.389.346q-.3.267-.612.522-.207.169-.415.334c-.206.162-.414.318-.623.471-.138.1-.276.2-.416.3-.227.159-.457.31-.688.458-.123.079-.244.163-.368.239q-.516.318-1.041.6c-.128.069-.258.13-.386.2-.235.121-.469.24-.707.351-.164.076-.33.145-.5.217-.206.089-.413.177-.622.259q-.265.1-.532.2-.3.11-.612.208c-.182.059-.364.116-.548.17-.21.061-.422.116-.635.17-.18.046-.359.094-.54.135-.245.055-.494.1-.742.147-.217.04-.435.079-.654.112-.317.048-.635.092-.956.125-.178.019-.358.029-.538.043-.235.018-.469.036-.707.047-.189.008-.38.011-.57.015-.136,0-.27.01-.407.01-.055,0-.112-.007-.168-.008-.657,0-1.321-.035-1.995-.1-.1-.009-.2-.024-.3-.034-.309-.032-.617-.061-.929-.106v6.517A12.246,12.246,0,0,0,46.1,57.184l0,.005h0q.348.364.727.7a12.441,12.441,0,0,0,2.549,1.729,12.223,12.223,0,0,0,2.742,1.01,12.474,12.474,0,0,0,7.155-.421,12.186,12.186,0,0,0,1.344-.588h0a12.457,12.457,0,0,0,2.547-1.727Q63.549,57.554,63.9,57.189ZM49.21,48.1a2.335,2.335,0,1,1,2.33-2.34A2.343,2.343,0,0,1,49.21,48.1Zm9.176,6.227a5.378,5.378,0,0,1-7.609,0,1,1,0,0,1,1.414-1.414,3.462,3.462,0,0,0,4.781,0,1,1,0,0,1,1.414,1.414Zm2.4-6.227a2.335,2.335,0,1,1,2.34-2.34A2.338,2.338,0,0,1,60.79,48.1Z"/><path d="M64.07,67.945a5.585,5.585,0,0,1-1.529-.772c-.022-.015-.047-.026-.068-.042a5.825,5.825,0,0,1-2.4-4.708v-.379l-.059.019c-.084.032-.171.054-.255.084-.388.137-.781.258-1.18.36-.186.048-.373.087-.56.128-.311.066-.623.121-.938.167-.2.029-.4.06-.6.081q-.615.061-1.234.071c-.084,0-.166.015-.25.015s-.166-.013-.25-.015c-.412-.007-.824-.029-1.234-.071-.2-.021-.4-.052-.6-.081-.315-.046-.627-.1-.938-.167-.187-.041-.374-.08-.56-.128-.4-.1-.794-.224-1.183-.361-.083-.03-.168-.051-.251-.082-.02-.008-.04-.012-.06-.02v.379a5.881,5.881,0,0,1-.093,1.043c-.021.116-.063.222-.091.335a5.855,5.855,0,0,1-.177.649c-.048.132-.119.251-.177.377a5.715,5.715,0,0,1-.251.53c-.076.131-.173.247-.259.371-.1.149-.2.3-.314.442-.1.121-.223.224-.334.336s-.237.254-.37.366-.266.189-.4.283-.272.2-.42.291-.3.143-.454.214-.3.155-.468.214-.329.09-.494.134-.309.1-.472.128a9.857,9.857,0,0,0,.3,1.692c.015.056.036.11.052.165.063.218.128.435.205.648q.144.391.32.769l.007.017a9.908,9.908,0,0,0,10.851,5.522c.11-.021.215-.054.324-.079.193-.044.387-.084.575-.14.033-.009.064-.023.1-.033.261-.079.519-.166.77-.265.058-.024.113-.054.171-.078a9.948,9.948,0,0,0,4.583-3.9c.015-.024.027-.05.041-.074.142-.232.278-.469.4-.714.03-.061.054-.126.083-.188.1-.211.2-.423.287-.642.03-.076.051-.155.078-.232.077-.21.153-.419.215-.635.05-.172.085-.351.125-.527.029-.125.065-.247.089-.374.047-.251.078-.508.106-.765.006-.055.018-.109.023-.164a5.319,5.319,0,0,1-.73-.178C64.1,67.953,64.086,67.951,64.07,67.945Z"/><path d="M74.135,97.136a3.865,3.865,0,0,1-5.756-3.373v-2.5H41.621v2.5a3.885,3.885,0,0,1-3.88,3.879,3.829,3.829,0,0,1-1.876-.5V102h38.27Z"/><path d="M35.865,88.712v5.08a1.856,1.856,0,0,0,.542,1.292,1.878,1.878,0,0,0,3.214-1.321V66.892a1.883,1.883,0,0,0-1.88-1.879,1.881,1.881,0,0,0-1.879,1.879V79.217l0,.014Z"/>
<!-- <text x="0" y="125" fill="#000000" font-size="5px" font-weight="bold" font-family="'Helvetica Neue', Helvetica, Arial-Unicode, Arial, Sans-serif">Created by Soremba</text><text x="0" y="130" fill="#000000" font-size="5px" font-weight="bold" font-family="'Helvetica Neue', Helvetica, Arial-Unicode, Arial, Sans-serif">from the Noun Project</text> -->
</svg>
