<svg xmlns="http://www.w3.org/2000/svg" data-name="Layer 1" viewBox="0 0 110 137.5" x="0px" y="0px">
<path d="M54.08,6.92a9.22,9.22,0,1,1-9.22,9.22A9.23,9.23,0,0,1,54.08,6.92Zm-30,45a7.23,7.23,0,0,0,2.64.49,11.56,11.56,0,0,0,7.38-3.2l.16-.15a47.82,47.82,0,0,1,6.8-20.18c-.76-3.48-2.62-6-5.26-7s-5.88-.44-8.89,1.77A21.19,21.19,0,0,0,20,33.05a21.21,21.21,0,0,0-1.31,11.54C19.45,48.26,21.34,50.86,24.07,51.93ZM103,102.08a1,1,0,0,1-1,1H8a1,1,0,0,1,0-2H23.87a5.07,5.07,0,0,1-.37-.64,4.48,4.48,0,0,1,0-3.59L36.73,65.5l.08.07,9.26,7.91L31.53,100.7c-.07.13-.15.26-.23.38H53.61a4.78,4.78,0,0,1-1-2.88,2.09,2.09,0,0,1,0-.25l.78-19.45a2.73,2.73,0,0,0-1-2.21L38.11,64.05a5.26,5.26,0,0,1-1.82-3.37C35.65,55.51,35,42.12,43,29.6a5.31,5.31,0,0,1,6.75-1.94L73.68,39a1.21,1.21,0,0,0,1,0l7.17-3V20.49a1,1,0,1,1,2,0V35.23l1.3-.55a3.59,3.59,0,0,1,3.23,6.4l-4.53,2.73v57.27H102A1,1,0,0,1,103,102.08ZM81.82,45l-6.51,3.91a3.18,3.18,0,0,1-2.67.29L56.35,43.67a1.05,1.05,0,0,0-.85.09,1,1,0,0,0-.5.68L52.57,56.32a1,1,0,0,0,.22.87l9.24,11a9.46,9.46,0,0,1,2.16,6.86l-2,23.52a4.81,4.81,0,0,1-.92,2.46H81.82Z"/>
<!-- <text x="0" y="125" fill="#000000" font-size="5px" font-weight="bold" font-family="'Helvetica Neue', Helvetica, Arial-Unicode, Arial, Sans-serif">Created by Soremba</text> -->
<!-- <text x="0" y="130" fill="#000000" font-size="5px" font-weight="bold" font-family="'Helvetica Neue', Helvetica, Arial-Unicode, Arial, Sans-serif">from the Noun Project</text> -->
</svg>
