<svg xmlns="http://www.w3.org/2000/svg" xmlns:cc="http://creativecommons.org/ns#" xmlns:dc="http://purl.org/dc/elements/1.1/" xmlns:rdf="http://www.w3.org/1999/02/22-rdf-syntax-ns#" enable-background="new" version="1.1" viewBox="0 0 64 80" x="0px" y="0px">
<path d="m14.221 32c-0.13228 0.64816-0.2207 1.3126-0.2207 2v4.2949c0.62245-0.63343 1.3094-1.2024 2.041-1.7109 0.20675-1.4496 1.4564-2.584 2.959-2.584h1c0.48114 0 0.93102 0.12674 1.3359 0.33203 0.37366-0.073217 0.75121-0.13503 1.1348-0.17773l0.18555-1.8672c-0.1015-0.09224-0.1961-0.19206-0.29492-0.28711h-8.1406zm27.418 0c-0.098824 0.095045-0.19342 0.19487-0.29492 0.28711l0.18555 1.8672c0.38356 0.042703 0.7611 0.10452 1.1348 0.17773 0.40492-0.20529 0.8548-0.33203 1.3359-0.33203h1c1.5026 0 2.7522 1.1344 2.959 2.584 0.73165 0.50853 1.4186 1.0775 2.041 1.7109v-4.2949c0-0.68741-0.088423-1.3518-0.2207-2h-8.1406z" /><path d="m13 20c-2.7527 0-5 2.2473-5 5s2.2473 5 5 5h7.6465c-1.1846-1.6839-2.0069-3.6332-2.3555-5.7578-0.91083-0.16777-2.2168-0.38867-2.2168-0.38867a2.0002 2.0002 0 0 1-0.023438-0.007813c-1.5807-0.52675-2.3974-2.31-1.8594-3.8457h-1.1914zm36.809 0c0.53802 1.5357-0.27868 3.319-1.8594 3.8457a2.0002 2.0002 0 0 1-0.023438 0.007813s-1.306 0.2209-2.2168 0.38867c-0.34861 2.1246-1.1709 4.0739-2.3555 5.7578h7.6465c2.7527 0 5-2.2473 5-5s-2.2473-5-5-5h-1.1914z" /><path d="m26 4c-3.3673-2e-7 -6.255 2.4461-6.8086 5.7676l-0.87109 5.2324h27.359l-0.87109-5.2324c-0.55357-3.3214-3.4413-5.7676-6.8086-5.7676h-12zm-8.1172 13-1.7773 3.5527a1.0001 1.0001 0 0 0 0.57812 1.3965s0.9066 0.28954 3.2051 0.54492c0.040696 0.004521 0.10094 0.009154 0.14258 0.013671 0.15619 3.677 1.9626 6.9279 4.7109 9.0254l-0.44922 4.502s-1.0762-0.011999-1.4609 0.025391c0.10025 0.29773 0.16797 0.60991 0.16797 0.93945v23h18v-23c0-0.32954 0.06772-0.64172 0.16797-0.93945-0.38474-0.03739-1.4574-0.026031-1.4609-0.025391l-0.44922-4.502c2.7484-2.0975 4.5547-5.3484 4.7109-9.0254 0.041633-0.004517 0.10188-0.00915 0.14258-0.013671 2.2985-0.25539 3.2051-0.54492 3.2051-0.54492a1.0001 1.0001 0 0 0 0.57812-1.3965l-1.7773-3.5527h-28.234zm4.1523 5.6895c2.3091 0.17394 5.5197 0.31055 9.9648 0.31055s7.6557-0.1366 9.9648-0.31055c-0.35444 5.2096-4.6632 9.3105-9.9648 9.3105s-9.6104-4.1009-9.9648-9.3105zm4.5977 10.027c1.6175 0.81362 3.4369 1.2832 5.3672 1.2832s3.7497-0.46958 5.3672-1.2832l0.36523 3.6406c-1.788 0.29072-4.1546 0.64258-5.7324 0.64258s-3.9444-0.35186-5.7324-0.64258l0.36523-3.6406zm-10.633 6.3652c-2.4484 2.1987-4 5.3769-4 8.918v9c0 1.645 1.355 3 3 3h1v-20.918zm32 0v20.918h1c1.645 0 3-1.355 3-3v-9c0-3.5411-1.5516-6.7193-4-8.918z" /><path d="m29.029 27a1 1 0 0 0-0.73633 0.29297 1 1 0 0 0 0 1.4141s0.39051 0.37787 1.0098 0.6875c0.61926 0.30963 1.5306 0.60547 2.6973 0.60547s2.078-0.29584 2.6973-0.60547c0.61926-0.30963 1.0098-0.6875 1.0098-0.6875a1 1 0 0 0 0-1.4141 1 1 0 0 0-1.4141 0s-0.10949 0.12213-0.49024 0.3125c-0.38074 0.19037-0.9694 0.39453-1.8027 0.39453s-1.422-0.20416-1.8027-0.39453c-0.38074-0.19037-0.49024-0.3125-0.49024-0.3125a1 1 0 0 0-0.67773-0.29297z" /><path d="m44 36c-0.5713 0-1 0.4287-1 1v23h3v-23c0-0.5713-0.4287-1-1-1z" /><path d="m19 36c-0.5713 0-1 0.4287-1 1v23h3v-23c0-0.5713-0.4287-1-1-1z" />
<!-- <text x="0" y="79" fill="#000000" font-size="5px" font-weight="bold" font-family="'Helvetica Neue', Helvetica, Arial-Unicode, Arial, Sans-serif">Created by RomStu</text><text x="0" y="84" fill="#000000" font-size="5px" font-weight="bold" font-family="'Helvetica Neue', Helvetica, Arial-Unicode, Arial, Sans-serif">from the Noun Project</text> -->
</svg>
